<?xml version="1.0" standalone="no"?>
<!DOCTYPE svg PUBLIC "-//W3C//DTD SVG 20010904//EN"
 "http://www.w3.org/TR/2001/REC-SVG-20010904/DTD/svg10.dtd">
<svg version="1.0" xmlns="http://www.w3.org/2000/svg"
 width="64.000000pt" height="64.000000pt" viewBox="0 0 64.000000 64.000000"
 preserveAspectRatio="xMidYMid meet">

<g transform="translate(0.000000,64.000000) scale(0.100000,-0.100000)"
 stroke="none">
<path d="M520 595 c-13 -14 -31 -25 -39 -25 -9 0 -112 -96 -228 -212 -206
-206 -213 -215 -224 -266 -14 -70 -7 -77 63 -63 52 11 60 18 223 181 93 94
173 170 178 170 4 0 10 -7 13 -15 4 -10 -12 -35 -45 -70 -49 -51 -57 -75 -28
-75 7 0 36 24 65 53 55 56 68 101 37 127 -14 12 -13 16 10 40 14 14 25 33 25
41 0 9 11 26 25 39 30 28 32 60 7 83 -26 24 -55 21 -82 -8z m60 -28 c0 -8 -9
-22 -20 -32 -27 -25 -46 -7 -24 23 17 24 44 30 44 9z m-80 -72 l24 -26 -49
-48 c-28 -26 -112 -108 -188 -181 l-137 -134 -22 21 -21 22 179 185 c98 102
182 186 185 186 3 0 16 -11 29 -25z m-392 -408 c2 -12 -3 -17 -17 -17 -15 0
-21 6 -21 21 0 25 33 22 38 -4z"/>
<path d="M205 50 c-11 -18 10 -32 41 -28 40 4 38 32 -3 36 -17 2 -34 -2 -38
-8z"/>
<path d="M325 49 c-15 -24 17 -29 151 -27 116 3 139 6 139 18 0 12 -24 15
-142 18 -96 2 -144 -1 -148 -9z"/>
</g>
</svg>
